<svg width="216" height="32" viewBox="0 0 216 32" fill="none" xmlns="http://www.w3.org/2000/svg">
<path d="M27.0757 14.9923C25.2745 14.8269 23.4732 14.7408 21.6728 14.6818C21.1075 14.6615 20.5421 14.6472 19.9768 14.6345C20.3673 14.2278 20.7569 13.8202 21.1423 13.4083C22.3739 12.1003 23.5861 10.7737 24.7422 9.39058C25.0996 8.96442 25.1115 8.33235 24.7422 7.89015C24.3255 7.39141 23.581 7.32305 23.0793 7.7374C21.6881 8.88678 20.3528 10.0919 19.038 11.3163C18.6237 11.6995 18.2137 12.0868 17.8046 12.475C17.7918 11.913 17.7766 11.3509 17.757 10.7889C17.6976 8.99818 17.611 7.20744 17.4447 5.41755C17.3937 4.8648 16.9532 4.4091 16.3776 4.35678C15.7283 4.29687 15.1536 4.77197 15.0933 5.41755C14.927 7.20828 14.8404 8.99902 14.781 10.7889C14.7606 11.3501 14.7462 11.9121 14.7334 12.4733C14.3251 12.0851 13.9151 11.6986 13.5009 11.3147C12.186 10.0902 10.8499 8.88509 9.45864 7.73656C9.02997 7.38213 8.39503 7.36947 7.95023 7.73656C7.44856 8.15091 7.37895 8.891 7.79574 9.38974C8.95103 10.7737 10.1632 12.1012 11.3949 13.4083C11.7803 13.8193 12.169 14.2269 12.5587 14.632C11.9942 14.6446 11.4297 14.659 10.8652 14.6792C9.06393 14.7375 7.26266 14.8244 5.46224 14.9906C4.90709 15.0413 4.44871 15.4792 4.39608 16.0506C4.33581 16.6961 4.81372 17.2683 5.46224 17.3282C7.26351 17.4945 9.06478 17.5814 10.8652 17.6396C11.4297 17.659 11.9942 17.6742 12.5587 17.6869C12.1682 18.0928 11.7794 18.4995 11.3949 18.9105C10.1632 20.2177 8.95103 21.546 7.79574 22.9291C7.43922 23.3553 7.42649 23.9865 7.79574 24.4287C8.21253 24.9274 8.95697 24.9966 9.45864 24.5823C10.8508 23.4338 12.186 22.2287 13.5009 21.0042C13.9143 20.6211 14.3243 20.2346 14.7317 19.8472C14.7445 20.4084 14.7589 20.9696 14.7793 21.5308C14.8378 23.3215 14.9253 25.1122 15.0925 26.9021C15.1434 27.454 15.584 27.9097 16.1586 27.9621C16.808 28.022 17.3835 27.5469 17.4438 26.9021C17.611 25.1114 17.6985 23.3207 17.757 21.5308C17.7774 20.9687 17.7918 20.4076 17.8046 19.8455C18.2129 20.2337 18.6229 20.6202 19.0363 21.0033C20.352 22.2278 21.6864 23.4329 23.0776 24.5823C23.5063 24.9376 24.1421 24.9494 24.5869 24.5823C25.0886 24.1679 25.1573 23.4278 24.7405 22.9291C23.5844 21.546 22.3722 20.2185 21.1406 18.9113C20.7552 18.4995 20.3656 18.0919 19.9751 17.6852C20.5404 17.6725 21.1058 17.6573 21.6711 17.6379C23.4724 17.5788 25.2736 17.4928 27.074 17.3274C27.63 17.2767 28.0884 16.8388 28.1411 16.2666C28.203 15.6227 27.7251 15.0514 27.0757 14.9923Z" fill="#FF005A"/>
<path d="M17.1686 2.69589C17.6678 2.19958 17.6678 1.3949 17.1686 0.898588C16.6694 0.402276 15.86 0.402276 15.3608 0.898588C14.8616 1.3949 14.8616 2.19958 15.3608 2.69589C15.86 3.19221 16.6694 3.19221 17.1686 2.69589Z" fill="#FF005A"/>
<path d="M16.4711 31.7963C17.168 31.6839 17.6413 31.0311 17.5281 30.3383C17.415 29.6454 16.7584 29.1749 16.0615 29.2874C15.3646 29.3998 14.8913 30.0526 15.0044 30.7455C15.1175 31.4383 15.7742 31.9088 16.4711 31.7963Z" fill="#FF005A"/>
<path d="M2.71183 17.0681C3.21107 16.5718 3.21107 15.7671 2.71183 15.2708C2.2126 14.7745 1.40318 14.7745 0.903945 15.2708C0.40471 15.7671 0.40471 16.5718 0.903945 17.0681C1.40318 17.5644 2.2126 17.5644 2.71183 17.0681Z" fill="#FF005A"/>
<path d="M30.7217 17.4405C31.4278 17.4405 32.0001 16.8715 32.0001 16.1696C32.0001 15.4677 31.4278 14.8987 30.7217 14.8987C30.0157 14.8987 29.4434 15.4677 29.4434 16.1696C29.4434 16.8715 30.0157 17.4405 30.7217 17.4405Z" fill="#FF005A"/>
<path d="M6.0422 7.27748C6.74822 7.27748 7.32057 6.70848 7.32057 6.0066C7.32057 5.30471 6.74822 4.73572 6.0422 4.73572C5.33618 4.73572 4.76383 5.30471 4.76383 6.0066C4.76383 6.70848 5.33618 7.27748 6.0422 7.27748Z" fill="#FF005A"/>
<path d="M26.4875 27.6026C27.1935 27.6026 27.7659 27.0336 27.7659 26.3317C27.7659 25.6298 27.1935 25.0608 26.4875 25.0608C25.7815 25.0608 25.2092 25.6298 25.2092 26.3317C25.2092 27.0336 25.7815 27.6026 26.4875 27.6026Z" fill="#FF005A"/>
<path d="M6.0422 27.6026C6.74822 27.6026 7.32057 27.0336 7.32057 26.3317C7.32057 25.6298 6.74822 25.0608 6.0422 25.0608C5.33618 25.0608 4.76383 25.6298 4.76383 26.3317C4.76383 27.0336 5.33618 27.6026 6.0422 27.6026Z" fill="#FF005A"/>
<path d="M26.4875 7.27748C27.1935 7.27748 27.7659 6.70848 27.7659 6.0066C27.7659 5.30471 27.1935 4.73572 26.4875 4.73572C25.7815 4.73572 25.2092 5.30471 25.2092 6.0066C25.2092 6.70848 25.7815 7.27748 26.4875 7.27748Z" fill="#FF005A"/>
<path d="M49.0001 28.76C49.0001 29.6597 48.6603 30.4245 47.9789 31.0554C47.2984 31.6846 46.4723 32 45.4996 32C44.5279 32 43.7018 31.6846 43.0204 31.0554C42.3399 30.4245 42.0001 29.6597 42.0001 28.76V3.24088C42.0001 2.34121 42.3408 1.5755 43.0204 0.945472C43.7018 0.314581 44.527 0 45.4996 0C46.4723 0 47.2984 0.315446 47.9789 0.945472C48.6603 1.57464 49.0001 2.34035 49.0001 3.24088V28.76Z" fill="#FF005A"/>
<path d="M78.3197 4.68069C81.4388 7.80144 82.9996 11.5747 82.9996 15.9996C82.9996 20.4098 81.4388 24.1839 78.3197 27.3193C75.1981 30.4401 71.4248 32 66.9999 32C62.5888 32 58.8163 30.4401 55.6809 27.3193C52.5592 24.1839 51.0001 20.4098 51.0001 15.9996C51.0001 11.5747 52.5601 7.80144 55.6809 4.68069C58.8155 1.55994 62.5888 3.58703e-07 66.9999 3.58703e-07C71.4248 -0.000863876 75.1981 1.55994 78.3197 4.68069ZM66.9999 6.48089C64.3751 6.48089 62.1316 7.41081 60.2717 9.27151C58.411 11.1322 57.4802 13.3749 57.4802 15.9996C57.4802 18.6251 58.4101 20.8678 60.2717 22.7285C62.1316 24.5892 64.3751 25.5191 66.9999 25.5191C69.641 25.5191 71.8906 24.5892 73.7505 22.7285C75.5965 20.8678 76.5186 18.6251 76.5186 15.9996C76.5186 13.3749 75.5965 11.1322 73.7505 9.27151C71.8906 7.40995 69.6401 6.48089 66.9999 6.48089Z" fill="#FF005A"/>
<path d="M103.301 0C106.539 0 109.097 0.975669 110.976 2.92614C112.656 4.696 113.496 6.87115 113.496 9.45162C113.496 12.3613 112.357 14.559 110.083 16.0445C112.68 17.7409 113.985 20.0889 114 23.0885C114 25.4892 113.107 27.5296 111.319 29.2095C109.35 31.0693 106.677 32 103.301 32H89.2992C88.3831 32 87.6043 31.6846 86.9619 31.0554C86.3213 30.4246 86.0001 29.6598 86.0001 28.7602V3.2407C86.0001 2.34108 86.3213 1.57541 86.9619 0.945421C87.6043 0.314564 88.3831 0 89.2992 0H103.301ZM92.5991 6.48141V13.254H103.301C104.416 13.2402 105.317 12.8643 106.003 12.1289C106.615 11.4851 106.927 10.696 106.943 9.76618C106.943 8.8657 106.645 8.10867 106.05 7.49337C105.392 6.81844 104.475 6.48141 103.3 6.48141H92.5991ZM92.5991 18.7442V25.5177H103.301C104.599 25.5177 105.614 25.2032 106.347 24.5732C106.989 24.0028 107.31 23.3054 107.31 22.4792C107.294 21.5796 106.936 20.7552 106.234 20.0042C105.453 19.1651 104.476 18.7442 103.301 18.7442H92.5991Z" fill="#FF005A"/>
<path d="M133.834 12.2869H127.095V8.78801H133.081V6.12313H127.095V3.05139H133.692V0.366167H124V14.9722H133.834V12.2869Z" fill="#919191"/>
<path d="M135.17 9.54068C135.17 12.7141 137.063 15.1756 139.995 15.1756C141.4 15.1756 142.581 14.545 143.436 13.4058V14.9722H146.022V0.366167H143.212V5.51285C142.398 4.47538 141.298 3.90578 139.995 3.90578C137.063 3.90578 135.17 6.32655 135.17 9.54068ZM138.081 9.54068C138.081 7.46574 139.242 6.40792 140.626 6.40792C142.011 6.40792 143.192 7.4454 143.192 9.5C143.192 11.5546 142.031 12.6531 140.626 12.6531C139.242 12.6531 138.081 11.5749 138.081 9.54068Z" fill="#919191"/>
<path d="M155.063 10.3951C155.063 11.8597 154.086 12.6734 153.068 12.6734C151.928 12.6734 151.174 12.0021 151.174 10.4764V4.10921H148.344V11.0257C148.344 13.8533 149.932 15.1756 152.111 15.1756C153.496 15.1756 154.697 14.5043 155.287 13.5482V14.9722H157.873V4.10921H155.063V10.3951Z" fill="#919191"/>
<path d="M164.895 15.1756C167.807 15.1756 169.843 13.3244 170.168 10.334H167.196C167.033 11.8191 166.198 12.6734 164.895 12.6734C163.409 12.6734 162.493 11.4936 162.493 9.54068C162.493 7.60814 163.429 6.40792 164.895 6.40792C166.178 6.40792 167.053 7.303 167.196 8.74732H170.168C169.822 5.81799 167.725 3.90578 164.895 3.90578C161.841 3.90578 159.601 6.28587 159.601 9.54068C159.601 12.8565 161.76 15.1756 164.895 15.1756Z" fill="#919191"/>
<path d="M178.358 14.9722H180.659V8.13704C180.659 5.47216 178.989 3.90578 176.139 3.90578C173.512 3.90578 171.7 5.53319 171.537 8.03533H174.083C174.184 6.81478 174.917 6.10278 176.139 6.10278C177.32 6.10278 178.012 6.81478 178.012 8.03533V8.6863C177.34 8.60493 176.811 8.56424 176.2 8.56424C173.024 8.56424 171.314 9.70343 171.314 11.8191C171.314 13.8533 172.82 15.1756 175.08 15.1756C176.566 15.1756 177.646 14.6467 178.358 13.6295V14.9722ZM173.981 11.7377C173.981 10.7612 174.775 10.2527 176.383 10.2527C176.872 10.2527 177.34 10.2934 178.012 10.3951V11.1681C178.012 12.4293 177.137 13.2227 175.691 13.2227C174.632 13.2227 173.981 12.6531 173.981 11.7377Z" fill="#919191"/>
<path d="M189.898 17.2709C189.898 16.3961 189.124 15.7655 187.984 15.6231L188.127 15.1552C190.733 14.9315 192.545 13.1413 192.85 10.334H189.878C189.715 11.8191 188.88 12.6734 187.577 12.6734C186.091 12.6734 185.174 11.4936 185.174 9.54068C185.174 7.60814 186.111 6.40792 187.577 6.40792C188.86 6.40792 189.735 7.303 189.878 8.74732H192.85C192.504 5.81799 190.407 3.90578 187.577 3.90578C184.523 3.90578 182.283 6.28587 182.283 9.54068C182.283 12.5514 184.055 14.7484 186.742 15.1146L186.416 16.3758C187.414 16.2741 187.984 16.4775 187.984 17.1081C187.984 17.4336 187.719 17.6777 187.312 17.6777C186.885 17.6777 186.62 17.4946 186.539 17.0471H184.788C184.95 18.3084 185.928 19 187.414 19C188.86 19 189.898 18.288 189.898 17.2709Z" fill="#919191"/>
<path d="M196.846 3.31585C196.805 2.46146 197.09 2.17666 197.497 2.17666C198.169 2.17666 199.126 3.17345 200.47 3.17345C201.956 3.17345 202.913 1.85118 202.608 0H200.877C200.918 0.854391 200.633 1.13919 200.226 1.13919C199.554 1.13919 198.576 0.142399 197.233 0.142399C195.746 0.142399 194.81 1.42398 195.115 3.31585H196.846ZM201.04 14.9722H203.341V8.13704C203.341 5.47216 201.671 3.90578 198.821 3.90578C196.194 3.90578 194.382 5.53319 194.219 8.03533H196.764C196.866 6.81478 197.599 6.10278 198.821 6.10278C200.002 6.10278 200.694 6.81478 200.694 8.03533V8.6863C200.022 8.60493 199.493 8.56424 198.882 8.56424C195.706 8.56424 193.995 9.70343 193.995 11.8191C193.995 13.8533 195.502 15.1756 197.762 15.1756C199.248 15.1756 200.327 14.6467 201.04 13.6295V14.9722ZM196.663 11.7377C196.663 10.7612 197.457 10.2527 199.065 10.2527C199.554 10.2527 200.022 10.2934 200.694 10.3951V11.1681C200.694 12.4293 199.818 13.2227 198.373 13.2227C197.314 13.2227 196.663 12.6531 196.663 11.7377Z" fill="#919191"/>
<path d="M210.483 15.1756C213.639 15.1756 216 12.6938 216 9.54068C216 6.36724 213.639 3.90578 210.483 3.90578C207.327 3.90578 204.965 6.36724 204.965 9.54068C204.965 12.6938 207.327 15.1756 210.483 15.1756ZM210.483 12.6734C209.078 12.6734 207.877 11.5546 207.877 9.54068C207.877 7.52677 209.078 6.42827 210.483 6.42827C211.888 6.42827 213.089 7.52677 213.089 9.54068C213.089 11.5546 211.888 12.6734 210.483 12.6734Z" fill="#919191"/>
</svg>
